<?xml version="1.0"?><svg width="744.09448819" height="1052.3622047" xmlns="http://www.w3.org/2000/svg">
 <title>laurel crown brown</title>

 <metadata id="metadata17720">image/svg+xml</metadata>
 <g>
  <title>Layer 1</title>
  <g id="layer3" display="inline"/>
  <g id="layer1" display="inline">
   <g id="g22249">
    <path id="path18706" d="m207.270004,231.487c-82.829002,55.752014 -137.767906,152.950989 -137.767906,263.557007c0,172.919983 134.165901,313.244995 299.495888,313.244995c165.329041,0 299.527039,-140.325012 299.527039,-313.244995c0,-114.147003 -58.51001,-214.065002 -145.818054,-268.827011c-19.971985,-9.625992 -109.794983,-64.748993 0,9.944c27.871033,18.103012 52.915039,40.935989 73.368042,67.654007c50.723999,64.738983 73.047974,152.252991 61.484009,235.083008c-11.212036,85.65802 -60.059021,164.257996 -128.957031,211.315979c-67.713989,47.291992 -154.871979,61.453003 -233.511993,39.809998c-83.921997,-22.091003 -155.899994,-86.606995 -191.612999,-168.919983c-38.302299,-86.026978 -33.7192,-191.154999 10.395004,-273.799011c22.157997,-42.643005 54.816002,-78.765991 93.398003,-105.640991c109.047989,-81.636002 27.965988,-29.223007 0,-10.177002l0,0z" stroke-dashoffset="0" stroke-miterlimit="4" stroke-linejoin="round" stroke-linecap="round" stroke-width="2.748" stroke="black" fill="#000000"/>
    <path id="path17799" d="m240.667007,845.78302c0.001999,-1.153992 58.145981,-30.153992 68.559982,-34.196045c14.373016,-5.578979 38.063995,-9.592957 46.460999,-7.871948l6.102997,1.25l-6.815979,8.157959c-3.748016,4.486023 -9.976013,10.358032 -13.839996,13.048035c-9.322998,6.48999 -32.132996,14.251953 -49.595001,16.875977c-12.300995,1.848022 -50.876007,3.922974 -50.873001,2.736023zm231.513992,-0.636047c-26.108002,-1.576965 -28.093994,-1.940979 -52.433014,-9.607971c-14.561981,-4.586975 -18.28598,-6.804016 -29.526978,-17.578003l-12.864014,-12.328003l5.679993,-1.591003c14.613007,-4.093018 61.509003,9.40802 82.048004,23.619995c3.903015,2.700989 9.332001,5.579041 12.063995,6.395996c6.228027,1.862 23.847015,10.869019 23.847015,12.190002c0,0.541016 -1.118011,0.838989 -2.484009,0.661011c-1.365997,-0.177002 -13.214996,-0.969971 -26.330994,-1.762024zm-284.175003,-34.930969c-10.929993,-3.397034 -23.761993,-7.289978 -28.514999,-8.650024l-8.640991,-2.473999l14.602997,-2.527954c8.031998,-1.390015 23.270996,-4.302002 33.86499,-6.470032c29.540009,-6.044983 59.128998,-4.289001 78.269012,4.645996l5.117004,2.388l-6.389008,5.716003c-16.735992,14.970032 -53.884003,18.070984 -88.309006,7.372009zm295.242996,2.352966c-14.214996,-5.237 -27.199982,-14.35199 -23.483002,-16.483948c7.766022,-4.452026 33.679016,-9.932007 46.968994,-9.932007c12.254028,0 44.525024,5.057007 75.312988,11.802979c5.80304,1.270996 3.352051,2.392029 -22.050964,10.083008c-24.929993,7.547974 -30.968018,8.643982 -47.268982,8.580017c-13.381042,-0.05304 -21.751038,-1.203003 -29.479034,-4.050049zm-164.368988,-16.421997c-12.545013,-3.723999 -38.64801,-33.994995 -43.407013,-50.337952l-1.372986,-4.713013l8.583008,4.484985c4.720978,2.468018 14.764984,6.640991 22.320984,9.273987c25.131012,8.757019 36.688995,18.225037 43.933014,35.988037l3.069,7.524963l-13.440002,-0.182983c-7.391998,-0.101013 -16.251007,-1.018005 -19.686005,-2.038025zm70.830994,-1.405945c0,-5.549011 14.167999,-23.646057 23.428009,-29.924011c4.087006,-2.770996 13.158997,-6.963989 20.16098,-9.319031c7.002014,-2.35498 17.137024,-6.459961 22.522003,-9.120972l9.792023,-4.840027l-1.266022,5.166992c-3.057983,12.484009 -22.432983,37.762024 -34.492004,45.002014c-6.924988,4.15802 -12.319,5.535034 -24.511993,6.257996c-14.703003,0.872009 -15.632996,0.68103 -15.632996,-3.222961zm-125.196991,-9.999023c-21.477005,-7.848022 -36.674011,-25.617981 -44.790009,-52.372986c-2.746002,-9.052002 -5.546005,-20.408997 -6.222,-25.239014l-1.231003,-8.781982l26.764999,27.105957c27.619003,27.970032 33.251999,36.340027 34.970993,51.96405c0.999023,9.083984 -0.824982,10.490967 -9.492981,7.323975zm201.25,-6.698975c2.348999,-17.939026 12.541992,-31.682007 50.339996,-67.873047l12.127014,-11.610962l-1.613037,10.458008c-5.169983,33.507996 -22.246979,62.687988 -42.278992,72.243958c-5.593994,2.669006 -12.299988,4.861023 -14.902985,4.872009c-4.373993,0.018005 -4.653015,-0.596008 -3.671997,-8.089966zm-311.542007,-12.007019c-22.876007,-7.27301 -28.800003,-10.288025 -50.700996,-25.802002c-12.126404,-8.590027 -21.7761,-15.819031 -21.443703,-16.062988c3.002602,-2.205994 74.661697,5.794983 80.938705,9.037964c1.722,0.889038 8.942993,4.517029 16.046997,8.062988c7.104004,3.545044 16.406998,9.585022 20.671997,13.421997l7.753998,6.976013l-7.132996,3.05304c-11.854004,5.074951 -32.456009,5.66095 -46.134003,1.312988zm394.752975,1.638977c-4.761963,-0.958984 -9.925964,-2.822998 -11.47699,-4.140991c-3.657959,-3.109985 -0.179993,-7.232971 14.554016,-17.252014c16.302002,-11.086975 34.708984,-16.791992 61.61499,-19.098999c34.642029,-2.969971 44.05603,-3.307007 42.988037,-1.540955c-2.282043,3.770996 -43.210022,30.368958 -52.763,34.289978c-22.279053,9.141968 -37.391052,11.27301 -54.917053,7.742981zm-357.46698,-26.929016c-12.481003,-9.648987 -23.701996,-26.082947 -26.348999,-38.59198c-1.264999,-5.979004 -1.981995,-22.315002 -1.628998,-37.141968l0.628998,-26.467041l7.262009,14.252014c3.993988,7.838013 9.602997,17.757996 12.464996,22.044006c13.897995,20.817017 21.651993,49.028015 17.841995,64.914001l-1.798996,7.500977l-8.421005,-6.51001zm347.716003,-13.925964c1.052002,-21.957031 4.434021,-32.79303 14.952026,-47.900024c2.470947,-3.549011 8.416992,-13.977966 13.213989,-23.174988l8.721008,-16.723022l1.390991,17.115051c1.674011,20.58197 -1.124023,46.983948 -6.137024,57.914001c-3.914978,8.53595 -20.787964,27.078979 -28.47699,31.294983l-4.674011,2.562988l1.01001,-21.088989zm-423.019997,-25.098999c-6.702003,-1.518005 -15.191002,-4.354004 -18.865601,-6.299988c-11.991104,-6.353027 -32.429703,-24.485046 -41.409901,-36.737c-4.835701,-6.598022 -11.477303,-14.973022 -14.7593,-18.612c-6.7313,-7.46405 -6.334499,-7.812012 4.211498,-3.687012c4.1208,1.612 12.517902,3.942993 18.660103,5.179993c12.829201,2.583008 35.050201,12.987976 47.5522,22.266968c9.501999,7.052002 24.294998,23.973022 28.852997,33.004028c2.712006,5.372009 2.664993,5.843994 -0.580002,5.869995c-1.940994,0.015015 -5.317001,0.421021 -7.502991,0.901978c-2.186005,0.481018 -9.458008,-0.367981 -16.159004,-1.886963zm487.631996,1.552002c-3.005981,-0.476013 -5.465027,-1.329041 -5.465027,-1.89502c0,-4.044983 12.154053,-20.71698 21.623047,-29.661011c13.073975,-12.348999 39.899963,-26.841003 55.97699,-30.23999c5.958008,-1.26001 14.752014,-3.609985 19.542969,-5.223999c10.322021,-3.47699 12.554016,-2.458008 5.292053,2.416992c-2.871033,1.92804 -8.298035,8.184998 -12.060059,13.906006c-11.625,17.67804 -17.974976,23.73999 -42.391968,40.471008c-9.203003,6.30603 -32.257019,11.851013 -42.518005,10.226013zm-471,-27.048035c-5.153,-6.166992 -7.616997,-11.896973 -10.102997,-23.485962c-1.807999,-8.429993 -3.287003,-18.866028 -3.287003,-23.190002c0,-11.322021 7.253998,-45.794983 11.738007,-55.781006c3.772995,-8.403015 3.826996,-8.434998 4.000992,-2.410034c0.096008,3.359009 3.290009,18.934021 7.097,34.611023c4.335999,17.856995 6.931,33.499023 6.947006,41.877014c0.024994,13.22998 -4.389008,33.252014 -7.807999,35.416992c-0.973007,0.616028 -4.835999,-2.551025 -8.585007,-7.038025zm463.815002,2.437012c-8.049011,-20.834961 -7.742004,-34.455994 1.638,-72.692993c3.296021,-13.437012 6.004028,-26.896973 6.018005,-29.909973c0.083008,-17.802002 8.802979,2.30896 13.968994,32.214966c4.965027,28.744995 -1.469971,62.238037 -13.744019,71.535034l-5.753967,4.359009l-2.127014,-5.506042zm-516.672699,-57.523987c-14.246399,-5.182983 -28.514004,-16.664978 -37.022503,-29.794006c-3.837799,-5.921997 -12.308098,-21.791992 -18.8228,-35.266968l-11.844999,-24.5l9.3627,5.514954c5.1495,3.03302 14.5895,9.235046 20.977802,13.782043c6.388298,4.547974 14.751297,10.217957 18.584499,12.60199c14.388195,8.947998 30.711102,35.036011 33.632397,53.752991c1.475403,9.453003 0.834702,9.620972 -14.867096,3.908997zm564.099701,1.052979c0,-1.716003 2.807983,-10.578979 6.239014,-19.695984c7.023987,-18.658997 16.317993,-30.413025 33.27301,-42.078003c15.500977,-10.664978 40.781982,-26.710999 42.095947,-26.718018c2.097046,-0.011963 -23.945984,51.850037 -30.838989,61.413025c-8.066956,11.190979 -21.401978,21.083008 -35.575012,26.390991c-12.344971,4.622009 -15.19397,4.752014 -15.19397,0.687988zm-550.273705,-26.341003c-5.348,-14.644958 -5.413399,-33.164001 -0.178398,-50.527954c4.257301,-14.122009 29.772102,-56.504028 29.677101,-49.295013c-0.314003,23.696991 -4.285004,71.214996 -6.570999,78.626007c-3.901001,12.644958 -9.909004,24.406982 -14.767006,28.907959c-3.929993,3.641052 -4.059395,3.519043 -8.160698,-7.710999zm543.782677,7.574036c-4.797974,-5.458984 -12.592957,-22.798035 -15.177002,-33.763c-2.030945,-8.616028 -6.587952,-74.764008 -5.251953,-76.222015c1.487,-1.621002 25.445984,39.006012 29.143982,49.418976c6.120972,17.240051 6.062012,41.182007 -0.13501,54.458008c-2.482971,5.319031 -4.723999,9.671021 -4.981018,9.671021c-0.256958,0 -1.875977,-1.603027 -3.598999,-3.562988zm-580.134075,-72.999023c-18.171299,-12.260986 -28.431101,-32.977997 -34.277399,-69.214996c-1.644201,-10.191986 -3.630301,-20.269989 -4.413601,-22.395996c-1.092699,-2.96701 0.244699,-2.445007 5.746201,2.240997c3.943699,3.360016 9.3561,7.658997 12.027498,9.554016c8.363602,5.931976 29.678604,38.436005 33.574501,51.197998c4.403503,14.424988 4.957397,35.95697 0.925003,35.95697c-1.487206,0 -7.599205,-3.302979 -13.582203,-7.338989zm609.152081,-7.815002c1.472046,-17.840973 6.061035,-31.258972 15.406006,-45.043976c6.98999,-10.311005 36.952026,-41.600006 39.835022,-41.600006c0.893005,0 0.740967,2.376007 -0.337036,5.281006c-1.077942,2.903992 -3.215942,13.212006 -4.750977,22.903992c-5.396973,34.076996 -16.762024,55.932007 -34.835022,66.982971c-16.093994,9.842041 -16.800964,9.449036 -15.317993,-8.523987zm-587.946281,-9.989014c-0.902596,-7.40097 -0.295403,-15.066986 1.895103,-23.922974c5.488998,-22.19101 11.578697,-32.285004 30.915199,-51.244995c9.851997,-9.660004 17.913002,-17.096008 17.913002,-16.524994c0,0.570984 -1.430008,5.791992 -3.178009,11.600983c-9.673996,32.156006 -15.721992,49.789001 -19.293991,56.249023c-5.488007,9.924988 -23.678902,34.734009 -25.468407,34.734009c-0.800095,0 -2.052399,-4.901001 -2.782898,-10.891052zm571.855278,1.054016c-16.118958,-19.584991 -24.791992,-39.506989 -39.149963,-89.924988l-1.450012,-5.089996l4.932007,5.089996c2.713013,2.799011 11.658997,11.791992 19.880981,19.983002c12.737,12.69101 15.744019,17.057983 20.325012,29.522003c5.716003,15.553009 8.419983,38.014984 5.512024,45.796021c-1.697998,4.545959 -2.029053,4.368958 -10.050049,-5.376038zm-585.893677,-67.307983c-15.861301,-9.908997 -22.195499,-31.863007 -19.699001,-68.277008c0.850201,-12.399994 1.567802,-25.449982 1.594803,-29.001007c0.0476,-6.276001 0.237698,-6.134003 6.829498,5.089996c3.729198,6.350006 8.0187,12.951019 9.532001,14.669006c4.086998,4.639008 11.932701,23.867004 14.7967,36.264008c2.517197,10.895996 1.894699,22.341003 -2.026505,37.26001c-2.369598,9.015991 -2.762794,9.158997 -11.027496,3.994995zm600.904724,-0.731018c-1.613037,-2.908997 -2.545044,-12.380981 -2.554016,-25.957977c-0.013,-20.028015 0.390991,-22.213013 6.414001,-34.612c3.536011,-7.278015 10.334961,-19.40802 15.109985,-26.95401l8.679993,-13.720001l1.704041,19.828003c2.995972,34.862 0.85498,54.292999 -7.747009,70.319c-3.527039,6.570984 -13.914001,15.678009 -17.882019,15.678009c-0.651978,0 -2.328003,-2.061005 -3.724976,-4.581024zm-581.849724,-12.840973c0,-17.21402 9.870796,-36.083008 26.917702,-51.456024c7.176994,-6.472992 42.018997,-26.811981 45.929993,-26.811981c0.585999,0 -1.753998,3.434998 -5.200989,7.634979c-3.445999,4.199005 -11.642014,15.880005 -18.212006,25.958008c-13.160004,20.186005 -26.154999,34.882019 -38.8629,43.953003c-10.1222,7.223999 -10.5718,7.255005 -10.5718,0.722015zm563.34771,-0.151001c-11.781006,-7.976013 -28.583008,-25.187012 -32.869019,-33.667999c-5.859985,-11.596008 -15.891968,-26.440002 -23.119995,-34.210022c-3.61499,-3.886993 -6.572998,-7.841003 -6.572998,-8.786987c0,-0.946014 9.000977,3.102997 20.002991,8.997986c15.682983,8.403015 22.752014,13.701996 32.725037,24.53302c12.678955,13.769989 15.520996,19.772003 19.825989,41.875c1.560974,8.011993 0.22998,8.178986 -9.992004,1.259003zm-560.735413,-68.327026c-12.868599,-22.345978 -12.370598,-36.867981 2.8433,-82.913971l5.6614,-17.13501l6.717705,20.878998c5.293999,16.451996 6.712997,24.187012 6.695,36.47699c-0.026001,17.113007 -5.402,34.937012 -13.4188,44.485016l-4.428505,5.274994l-4.070099,-7.067017zm560.425415,4.162018c-1.190002,-1.515015 -4.729004,-7.792999 -7.86499,-13.951996c-5.301025,-10.414001 -5.69104,-12.766022 -5.572998,-33.593994c0.113953,-19.987 0.787964,-24.147003 6.272949,-38.683014c3.713013,-9.839996 6.604004,-15.07901 7.304016,-13.234009c8.705994,22.951019 17.020996,53.914001 17.064026,63.548004c0.039001,8.60199 -6.445007,27.79599 -11.588989,34.304016c-2.822998,3.572998 -3.842041,3.86499 -5.614014,1.610992zm-540.028015,-12.425018c6.844002,-22.112 35.125,-43.244995 68.738007,-51.362976c19.756989,-4.772003 21.149002,-4.03302 9.412003,5.002991c-5.789001,4.455994 -13.703003,11.148987 -17.588013,14.872009c-16.636993,15.947998 -49.10099,35.997986 -58.367996,36.048981c-2.842995,0.015015 -3.309998,-0.954987 -2.194,-4.561005zm518.708008,3.117004c-7.072998,-1.852997 -27.981018,-14.691986 -38.945007,-23.914978c-6.012024,-5.057007 -17.362976,-14.446014 -25.226013,-20.864014c-7.862976,-6.419006 -13.992981,-11.983002 -13.620972,-12.363983c1.875977,-1.921021 26.934998,4.662994 41.46698,10.895996c18.63501,7.990997 33.914001,21.065002 40.814026,34.921997c6.303955,12.658997 5.766968,14.013 -4.489014,11.324982zm-501.584007,-66.231995c-3.006996,-14.196991 -1.242996,-31.277985 4.437004,-42.951996c2.806992,-5.770996 10.843994,-17.623001 17.858994,-26.337006l12.755005,-15.845001l1.388992,13.28801c3.047012,29.147995 -3.927994,53.386002 -20.089996,69.810013c-5.783997,5.877991 -11.416992,10.687988 -12.51799,10.687988c-1.100006,0 -2.824005,-3.893005 -3.832008,-8.652008l0,0zm478.019981,-0.32901c-5.574951,-5.267975 -11.680969,-13.826996 -14.872009,-20.846985c-4.843994,-10.656006 -5.487976,-14.694 -6.120972,-38.376999l-0.705994,-26.466995l7.630005,8.975998c22.119019,26.020996 28.133972,37.251999 29.786011,55.615982c1.099976,12.220001 -1.782043,30.106018 -4.843994,30.059021c-0.778015,-0.011993 -5.670044,-4.044006 -10.873047,-8.960022zm-448.31398,-7.444c16.979004,-16.458984 33.981003,-22.28299 64.893997,-22.22699c21.850006,0.040009 25.727005,2.157013 12.929001,7.061005c-5.251999,2.011993 -16.703003,7.285004 -25.446991,11.71701c-17.420013,8.829987 -35.906006,13.675995 -52.376007,13.730988l-10.643005,0.036011l10.643005,-10.318024zm410.078995,7.424011c-6.557007,-1.372009 -20.417969,-6.64801 -30.802002,-11.722992c-10.382996,-5.076019 -22.223022,-10.458008 -26.311005,-11.959991c-10.707001,-3.933014 -5.690002,-5.931 14.988983,-5.968018c31.77002,-0.056 51.913025,7.34201 68.845032,25.287018l6.848999,7.257996l-10.822998,-0.200012c-5.953003,-0.109985 -16.189026,-1.321991 -22.747009,-2.694zm-355.240997,-41.815002c-4.110992,-0.817001 -8.039001,-2.063995 -8.729004,-2.770996c-2.253998,-2.30899 3.211014,-6.955002 13.782013,-11.718002c15.870987,-7.149994 40.567001,-6.701996 63.528992,1.153c9.562988,3.272003 17.388,6.67601 17.388,7.565002c0,0.889008 -3.352997,1.624008 -7.451996,1.632996c-4.098999,0.009003 -17.289001,1.366013 -29.312012,3.014008c-23.328995,3.199005 -37.169983,3.514999 -49.205994,1.123993zm281.713013,-0.041992c-6.557007,-0.912994 -19.344025,-2.350998 -28.415009,-3.195007c-9.070007,-0.842987 -15.777008,-2.25 -14.903992,-3.125c3.355988,-3.363998 32.091003,-11.899994 44.414001,-13.192993c14.915985,-1.565994 34.526978,2.660004 43.825012,9.442993c6.623962,4.832001 7.175964,6.998001 2.276978,8.927002c-5.68103,2.236008 -34.364014,2.931 -47.196991,1.143005zm-309.884003,-7.380997c-4.351013,-17.76001 8.677994,-39.786011 33.842987,-57.209c6.456009,-4.470001 13.656006,-9.16301 16.001007,-10.430008l4.261993,-2.302002l-3.543991,14.115005c-4.986008,19.860001 -10.587997,30.671005 -22.104996,42.658005c-8.155014,8.487 -22.371002,18.472 -26.30101,18.472c-0.470993,0 -1.442001,-2.387009 -2.155991,-5.304001zm368.304993,1.242996c-9.338989,-5.050003 -27.28302,-25.233002 -31.88501,-35.863998c-3.800964,-8.781998 -10.431976,-33.264999 -9.306,-34.362c0.360016,-0.350998 7.139008,3.662003 15.063995,8.917999c16.03302,10.634995 33.312012,30.016998 36.491028,40.931c2.417969,8.300995 1.669006,22.847 -1.218018,23.677002c-1.093018,0.313995 -5.208984,-1.171005 -9.145996,-3.300003zm-304.757004,-37.167007c4.143997,-19.717987 14.403,-27.829987 45.625015,-36.077988c7.651001,-2.021011 15.565979,-4.37001 17.588989,-5.219009c6.97699,-2.927002 -2.071014,10.834 -17.550995,26.694c-14.872009,15.236008 -26.515991,21.220001 -41.294998,21.220001c-5.458008,0 -5.686005,-0.345993 -4.368011,-6.617004zm231.567001,3.264008c-4.843994,-1.737 -12.342987,-6.044998 -16.664001,-9.574005c-7.371002,-6.01799 -29.696991,-34.046997 -28.277985,-35.500992c0.356995,-0.365997 4.996002,0.713989 10.307983,2.399994c5.312012,1.686005 15.346008,4.714996 22.296021,6.731995c19.353973,5.615005 34.062988,20.797012 34.062988,35.158005c0,3.331009 -1.26001,4.119003 -6.459015,4.040009c-3.552002,-0.053009 -10.421997,-1.518005 -15.265991,-3.255005z" stroke-width="1.015004" stroke="black" fill="#000000"/>
   </g>
  </g>
 </g>
</svg>